{
	"asset":{
		"generator":"Khronos glTF Blender I/O v4.0.44",
		"version":"2.0"
	},
	"scene":0,
	"scenes":[
		{
			"name":"Scene",
			"nodes":[
				0,
				1,
				2,
				3,
				4,
				5
			]
		}
	],
	"nodes":[
		{
			"mesh":0,
			"name":"Roof",
			"translation":[
				0,
				2.559999942779541,
				13.5
			]
		},
		{
			"mesh":1,
			"name":"Target.Rectangle",
			"scale":[
				0.5,
				0.5,
				0.5
			],
			"translation":[
				-2.9980673789978027,
				0,
				-1.276073932647705
			]
		},
		{
			"mesh":2,
			"name":"Plane",
			"translation":[
				0,
				0,
				-8.844157218933105
			]
		},
		{
			"mesh":3,
			"name":"Column",
			"translation":[
				0,
				0.01916748285293579,
				0
			]
		},
		{
			"mesh":4,
			"name":"Column.001",
			"translation":[
				-1.5,
				0.01916748285293579,
				0
			]
		},
		{
			"mesh":5,
			"name":"Column.002",
			"translation":[
				-2.1463189125061035,
				0.01916748285293579,
				-5.631234169006348
			]
		}
	],
	"meshes":[
		{
			"name":"Plane",
			"primitives":[
				{
					"attributes":{
						"POSITION":0,
						"NORMAL":1,
						"TEXCOORD_0":2
					},
					"indices":3
				}
			]
		},
		{
			"name":"Plane.001",
			"primitives":[
				{
					"attributes":{
						"POSITION":4,
						"NORMAL":5,
						"TEXCOORD_0":6
					},
					"indices":7
				}
			]
		},
		{
			"name":"Plane.002",
			"primitives":[
				{
					"attributes":{
						"POSITION":8,
						"NORMAL":9,
						"TEXCOORD_0":10
					},
					"indices":11
				}
			]
		},
		{
			"name":"Cube",
			"primitives":[
				{
					"attributes":{
						"POSITION":12,
						"NORMAL":13,
						"TEXCOORD_0":14
					},
					"indices":15
				}
			]
		},
		{
			"name":"Cube.002",
			"primitives":[
				{
					"attributes":{
						"POSITION":16,
						"NORMAL":17,
						"TEXCOORD_0":18
					},
					"indices":15
				}
			]
		},
		{
			"name":"Cube.001",
			"primitives":[
				{
					"attributes":{
						"POSITION":19,
						"NORMAL":20,
						"TEXCOORD_0":21
					},
					"indices":15
				}
			]
		}
	],
	"accessors":[
		{
			"bufferView":0,
			"componentType":5126,
			"count":216,
			"max":[
				49.751861572265625,
				2.7724716663360596,
				14.185563087463379
			],
			"min":[
				-5.275136947631836,
				0,
				-14.185563087463379
			],
			"type":"VEC3"
		},
		{
			"bufferView":1,
			"componentType":5126,
			"count":216,
			"type":"VEC3"
		},
		{
			"bufferView":2,
			"componentType":5126,
			"count":216,
			"type":"VEC2"
		},
		{
			"bufferView":3,
			"componentType":5123,
			"count":420,
			"type":"SCALAR"
		},
		{
			"bufferView":4,
			"componentType":5126,
			"count":120,
			"max":[
				1,
				0.19999992847442627,
				1
			],
			"min":[
				-1,
				0,
				-1
			],
			"type":"VEC3"
		},
		{
			"bufferView":5,
			"componentType":5126,
			"count":120,
			"type":"VEC3"
		},
		{
			"bufferView":6,
			"componentType":5126,
			"count":120,
			"type":"VEC2"
		},
		{
			"bufferView":7,
			"componentType":5123,
			"count":228,
			"type":"SCALAR"
		},
		{
			"bufferView":8,
			"componentType":5126,
			"count":4,
			"max":[
				1,
				0,
				1
			],
			"min":[
				-1,
				0,
				-1
			],
			"type":"VEC3"
		},
		{
			"bufferView":9,
			"componentType":5126,
			"count":4,
			"type":"VEC3"
		},
		{
			"bufferView":10,
			"componentType":5126,
			"count":4,
			"type":"VEC2"
		},
		{
			"bufferView":11,
			"componentType":5123,
			"count":6,
			"type":"SCALAR"
		},
		{
			"bufferView":12,
			"componentType":5126,
			"count":348,
			"max":[
				0.22499996423721313,
				2.5405900478363037,
				0.22499996423721313
			],
			"min":[
				-0.22499996423721313,
				-0.030619613826274872,
				-0.22499996423721313
			],
			"type":"VEC3"
		},
		{
			"bufferView":13,
			"componentType":5126,
			"count":348,
			"type":"VEC3"
		},
		{
			"bufferView":14,
			"componentType":5126,
			"count":348,
			"type":"VEC2"
		},
		{
			"bufferView":15,
			"componentType":5123,
			"count":1548,
			"type":"SCALAR"
		},
		{
			"bufferView":16,
			"componentType":5126,
			"count":348,
			"max":[
				0.22499996423721313,
				2.5405900478363037,
				0.22499996423721313
			],
			"min":[
				-0.22499996423721313,
				-0.030619613826274872,
				-0.22499996423721313
			],
			"type":"VEC3"
		},
		{
			"bufferView":17,
			"componentType":5126,
			"count":348,
			"type":"VEC3"
		},
		{
			"bufferView":18,
			"componentType":5126,
			"count":348,
			"type":"VEC2"
		},
		{
			"bufferView":19,
			"componentType":5126,
			"count":348,
			"max":[
				0.22499996423721313,
				2.5405900478363037,
				0.22499996423721313
			],
			"min":[
				-0.22499996423721313,
				-0.030619613826274872,
				-0.22499996423721313
			],
			"type":"VEC3"
		},
		{
			"bufferView":20,
			"componentType":5126,
			"count":348,
			"type":"VEC3"
		},
		{
			"bufferView":21,
			"componentType":5126,
			"count":348,
			"type":"VEC2"
		}
	],
	"bufferViews":[
		{
			"buffer":0,
			"byteLength":2592,
			"byteOffset":0,
			"target":34962
		},
		{
			"buffer":0,
			"byteLength":2592,
			"byteOffset":2592,
			"target":34962
		},
		{
			"buffer":0,
			"byteLength":1728,
			"byteOffset":5184,
			"target":34962
		},
		{
			"buffer":0,
			"byteLength":840,
			"byteOffset":6912,
			"target":34963
		},
		{
			"buffer":0,
			"byteLength":1440,
			"byteOffset":7752,
			"target":34962
		},
		{
			"buffer":0,
			"byteLength":1440,
			"byteOffset":9192,
			"target":34962
		},
		{
			"buffer":0,
			"byteLength":960,
			"byteOffset":10632,
			"target":34962
		},
		{
			"buffer":0,
			"byteLength":456,
			"byteOffset":11592,
			"target":34963
		},
		{
			"buffer":0,
			"byteLength":48,
			"byteOffset":12048,
			"target":34962
		},
		{
			"buffer":0,
			"byteLength":48,
			"byteOffset":12096,
			"target":34962
		},
		{
			"buffer":0,
			"byteLength":32,
			"byteOffset":12144,
			"target":34962
		},
		{
			"buffer":0,
			"byteLength":12,
			"byteOffset":12176,
			"target":34963
		},
		{
			"buffer":0,
			"byteLength":4176,
			"byteOffset":12188,
			"target":34962
		},
		{
			"buffer":0,
			"byteLength":4176,
			"byteOffset":16364,
			"target":34962
		},
		{
			"buffer":0,
			"byteLength":2784,
			"byteOffset":20540,
			"target":34962
		},
		{
			"buffer":0,
			"byteLength":3096,
			"byteOffset":23324,
			"target":34963
		},
		{
			"buffer":0,
			"byteLength":4176,
			"byteOffset":26420,
			"target":34962
		},
		{
			"buffer":0,
			"byteLength":4176,
			"byteOffset":30596,
			"target":34962
		},
		{
			"buffer":0,
			"byteLength":2784,
			"byteOffset":34772,
			"target":34962
		},
		{
			"buffer":0,
			"byteLength":4176,
			"byteOffset":37556,
			"target":34962
		},
		{
			"buffer":0,
			"byteLength":4176,
			"byteOffset":41732,
			"target":34962
		},
		{
			"buffer":0,
			"byteLength":2784,
			"byteOffset":45908,
			"target":34962
		}
	],
	"buffers":[
		{
			"byteLength":48692,
			"uri":"Artemis.bin"
		}
	]
}
