{
    "asset" : {
        "generator" : "Khronos glTF Blender I/O v1.5.17",
        "version" : "2.0"
    },
    "scene" : 0,
    "scenes" : [
        {
            "extras" : {
                "blenderkitUI" : {
                    "assetbar_on" : 0,
                    "turn_off" : 0
                },
                "uuid" : "789e7368-495a-45c2-8723-e8623092b9ef",
                "b_settings" : 0,
                "b_renderer" : 1,
                "b_player" : 1,
                "b_interactive" : 0,
                "s_output" : "exporting...",
                "s_cubemap_path" : "c:\\Media\\website\\a-frame\\model\\",
                "b_export" : 1,
                "export_path" : "C:\\Media\\website\\a-frame\\model\\",
                "s_project_name" : "target",
                "b_export_single_model" : 1
            },
            "name" : "Scene",
            "nodes" : [
                0,
                1,
                2,
                3
            ]
        }
    ],
    "nodes" : [
        {
            "name" : "Light",
            "rotation" : [
                0.16907575726509094,
                0.7558803558349609,
                -0.27217137813568115,
                0.570947527885437
            ],
            "translation" : [
                -7.117800712585449,
                -1.1951299905776978,
                -1.450221061706543
            ]
        },
        {
            "name" : "Camera",
            "rotation" : [
                0.483536034822464,
                0.33687159419059753,
                -0.20870360732078552,
                0.7804827094078064
            ],
            "translation" : [
                7.358891487121582,
                4.958309173583984,
                6.925790786743164
            ]
        },
        {
            "extras" : {},
            "name" : "TARDIS.Plate.Camera",
            "rotation" : [
                0.5920285582542419,
                0.3489406406879425,
                -0.316388875246048,
                0.6539424061775208
            ],
            "translation" : [
                0,
                -1.9210760593414307,
                -2.580641269683838
            ]
        },
        {
            "extras" : {},
            "mesh" : 0,
            "name" : "Plane",
            "scale" : [
                0.5,
                0.5,
                0.5
            ]
        }
    ],
    "meshes" : [
        {
            "name" : "Plane",
            "primitives" : [
                {
                    "attributes" : {
                        "POSITION" : 0,
                        "NORMAL" : 1,
                        "TANGENT" : 2,
                        "TEXCOORD_0" : 3
                    },
                    "indices" : 4
                }
            ]
        }
    ],
    "accessors" : [
        {
            "bufferView" : 0,
            "componentType" : 5126,
            "count" : 134,
            "max" : [
                1,
                0.19999992847442627,
                1
            ],
            "min" : [
                -1,
                0,
                -1
            ],
            "type" : "VEC3"
        },
        {
            "bufferView" : 1,
            "componentType" : 5126,
            "count" : 134,
            "type" : "VEC3"
        },
        {
            "bufferView" : 2,
            "componentType" : 5126,
            "count" : 134,
            "type" : "VEC4"
        },
        {
            "bufferView" : 3,
            "componentType" : 5126,
            "count" : 134,
            "type" : "VEC2"
        },
        {
            "bufferView" : 4,
            "componentType" : 5123,
            "count" : 228,
            "type" : "SCALAR"
        }
    ],
    "bufferViews" : [
        {
            "buffer" : 0,
            "byteLength" : 1608,
            "byteOffset" : 0
        },
        {
            "buffer" : 0,
            "byteLength" : 1608,
            "byteOffset" : 1608
        },
        {
            "buffer" : 0,
            "byteLength" : 2144,
            "byteOffset" : 3216
        },
        {
            "buffer" : 0,
            "byteLength" : 1072,
            "byteOffset" : 5360
        },
        {
            "buffer" : 0,
            "byteLength" : 456,
            "byteOffset" : 6432
        }
    ],
    "buffers" : [
        {
            "byteLength" : 6888,
            "uri" : "data:application/octet-stream;base64,"
        }
    ]
}
