{
    "asset" : {
        "generator" : "Khronos glTF Blender I/O v1.7.33",
        "version" : "2.0"
    },
    "scene" : 0,
    "scenes" : [
        {
            "extras" : {
                "b_settings" : 1,
                "b_renderer" : 0,
                "b_player" : 0,
                "b_interactive" : 0,
                "b_export" : 1,
                "b_export_single_model" : 1,
                "export_path" : "C:\\Media\\Graphics\\Projects\\AR\\Playground\\AFrame\\",
                "b_stats" : 0,
                "b_vr_controllers" : 0,
                "s_project_name" : "target",
                "s_output" : "exporting..."
            },
            "name" : "Scene",
            "nodes" : [
                0
            ]
        }
    ],
    "nodes" : [
        {
            "extras" : {
                "ant_landscape" : {}
            },
            "mesh" : 0,
            "name" : "Plane",
            "scale" : [
                0.10999999940395355,
                1,
                0.125
            ]
        }
    ],
    "meshes" : [
        {
            "name" : "Plane",
            "primitives" : [
                {
                    "attributes" : {
                        "POSITION" : 0,
                        "NORMAL" : 1,
                        "TANGENT" : 2,
                        "TEXCOORD_0" : 3
                    },
                    "indices" : 4
                }
            ]
        }
    ],
    "accessors" : [
        {
            "bufferView" : 0,
            "componentType" : 5126,
            "count" : 133,
            "max" : [
                1,
                0.0073194559663534164,
                1
            ],
            "min" : [
                -1,
                0,
                -1
            ],
            "type" : "VEC3"
        },
        {
            "bufferView" : 1,
            "componentType" : 5126,
            "count" : 133,
            "type" : "VEC3"
        },
        {
            "bufferView" : 2,
            "componentType" : 5126,
            "count" : 133,
            "type" : "VEC4"
        },
        {
            "bufferView" : 3,
            "componentType" : 5126,
            "count" : 133,
            "type" : "VEC2"
        },
        {
            "bufferView" : 4,
            "componentType" : 5123,
            "count" : 228,
            "type" : "SCALAR"
        }
    ],
    "bufferViews" : [
        {
            "buffer" : 0,
            "byteLength" : 1596,
            "byteOffset" : 0
        },
        {
            "buffer" : 0,
            "byteLength" : 1596,
            "byteOffset" : 1596
        },
        {
            "buffer" : 0,
            "byteLength" : 2128,
            "byteOffset" : 3192
        },
        {
            "buffer" : 0,
            "byteLength" : 1064,
            "byteOffset" : 5320
        },
        {
            "buffer" : 0,
            "byteLength" : 456,
            "byteOffset" : 6384
        }
    ],
    "buffers" : [
        {
            "byteLength" : 6840,
            "uri" : "data:application/octet-stream;base64,"
        }
    ]
}
